# xmcd
#
# Track frame offsets:
#	150
#	10877
#	23009
#	35915
#	48258
#	61326
#	73530
#	85448
#	97443
#	110954
#	122279
#	133623
#	146092
#	158843
#	171034
#	182239
#	192470
#	204623
#	211808
#	220127
#	230930
#	241424
#	252012
#	263080
#	274491
#	288298
#	298690
#	310097
#	325667
#	336182
# Disc length: 4643 seconds
# Revision: 1
# Processed by: cddbd v1.5.2PL0 Copyright (c) Steve Scherf et al.
#
# Submitted via: libkcddb 0.31
#
DISCID=d612211e
DTITLE=Lester Flatt and Earl Scruggs - Anthology Bluegrass 2
DYEAR=1900
DGENRE=Bluegrass
TTITLE0=Bubbling In My Soul
TTITLE1=The Old Fashioned Preacher
TTITLE2=I'm Working On A Road
TTITLE3=Be Ready For Tomorrow May Never Come
TTITLE4=Give Mother My Crown
TTITLE5=Foggy Mountain Breakdown
TTITLE6=My Cabin In Caroline
TTITLE7=Roll In My Sweet Baby's Arms
TTITLE8=Baby Blue Eyes
TTITLE9=Old Salty Dog Blues
TTITLE10=I'll Just Pretend
TTITLE11=Pine County Breakdown
TTITLE12=Doin' My Time
TTITLE13=God Loves His Children
TTITLE14=Farewell Blues
TTITLE15=Take Me In A Lifeboat
TTITLE16=We'll Meet Again, Sweetheart
TTITLE17=Round Town Gals
TTITLE18=Bending The Strings
TTITLE19=Preachin' Prayin' Singin'
TTITLE20=You're Gonna Miss Me When I'm Gone
TTITLE21=I Still Miss Someone
TTITLE22=Wabash Cannonball
TTITLE23=I'll be on that good road some
TTITLE24=Rock Salt And Nails
TTITLE25=Confessing
TTITLE26=Will You Be Lonesome Too
TTITLE27=The soldier's return
TTITLE28=Loafer's Glory
TTITLE29=You've Been Fooling Me Baby
EXTD=
EXTT0=
EXTT1=
EXTT2=
EXTT3=
EXTT4=
EXTT5=
EXTT6=
EXTT7=
EXTT8=
EXTT9=
EXTT10=
EXTT11=
EXTT12=
EXTT13=
EXTT14=
EXTT15=
EXTT16=
EXTT17=
EXTT18=
EXTT19=
EXTT20=
EXTT21=
EXTT22=
EXTT23=
EXTT24=
EXTT25=
EXTT26=
EXTT27=
EXTT28=
EXTT29=
PLAYORDER=
